REM MD5 30659e74e10d9850ed2a05c6fdbb4607
FILE "Dengeki PlayStation D26 (Japan).bin" BINARY
  TRACK 01 MODE2/2352
    INDEX 01 00:00:00
  TRACK 02 AUDIO
    INDEX 00 63:40:10
    INDEX 01 63:42:10
  TRACK 03 AUDIO
    INDEX 00 65:23:11
    INDEX 01 65:25:11
REM LEADOUT 68:37:22
